Coordinates
version=1
nRows=19
nColumns=36
inDegrees=yes

Units are S.I. units (second, meters, Newtons, ...)
If the header above contains a line with 'inDegrees', this indicates whether rotational values are in degrees (yes) or radians (no).

endheader
time	pelvis_tilt	pelvis_list	pelvis_rotation	pelvis_tx	pelvis_ty	pelvis_tz	hip_flexion_r	hip_adduction_r	hip_rotation_r	knee_angle_r	knee_angle_r_beta	ankle_angle_r	subtalar_angle_r	mtp_angle_r	hip_flexion_l	hip_adduction_l	hip_rotation_l	knee_angle_l	knee_angle_l_beta	ankle_angle_l	subtalar_angle_l	mtp_angle_l	lumbar_extension	lumbar_bending	lumbar_rotation	arm_flex_r	arm_add_r	arm_rot_r	elbow_flex_r	pro_sup_r	arm_flex_l	arm_add_l	arm_rot_l	elbow_flex_l	pro_sup_l
      1.16666670	    -22.82159135	      0.48920688	      1.49923648	     -0.92304020	      1.17358066	     -0.08558562	     43.55115688	     -1.01052055	     -0.03830547	     43.66602243	      0.76211586	     17.58615469	    -30.66946042	     -7.49999987	     42.17620465	      4.09238017	     11.97038082	     42.14023468	      0.73548584	     17.76538160	    -21.50120060	     -7.49999987	    -19.23783815	      4.19272530	     -3.50636054	      1.59190207	    -19.23677554	     29.35778871	     15.29874993	     52.83200132	     -3.16376496	    -15.42877966	      5.04949944	     25.42571457	     60.23965310
      1.17083330	    -23.07444548	      0.53726486	      1.81067395	     -0.92119823	      1.16982013	     -0.08497890	     43.60488095	     -1.32271601	     -0.10837689	     43.42771092	      0.75795654	     17.33009271	    -30.92746214	     -7.49999987	     42.47223122	      4.50871814	     12.31677447	     42.32734867	      0.73875160	     17.22624723	    -22.23216344	     -7.49999987	    -19.13121246	      4.34516986	     -3.21727095	      1.04746084	    -19.43986855	     26.30378320	     16.29825329	     51.83374009	     -2.14295225	    -15.35043621	      8.14354529	     24.38469934	     60.25491708
      1.17500000	    -23.18920950	      0.48362054	      1.94110818	     -0.92262282	      1.16566213	     -0.07616000	     43.53108310	     -1.03916939	      0.07128540	     43.12865553	      0.75273704	     17.46471435	    -31.31303081	     -7.49999987	     42.77552735	      4.40299983	     12.49254903	     42.69057031	      0.74509101	     17.09906116	    -22.42972901	     -7.49999987	    -19.26726522	      4.32331955	     -3.47014719	      1.21101158	    -19.11171492	     24.88094216	     16.76446380	     51.97150613	     -1.65393230	    -15.45005372	      8.09166189	     23.87000476	     59.96925871
      1.17916670	    -22.95472334	      0.31107288	      2.16322509	     -0.92121961	      1.16287109	     -0.07604431	     43.22919370	     -0.82662095	     -0.16706608	     43.26695255	      0.75515078	     17.87254333	    -31.42539821	     -7.49999987	     42.89725658	      4.23211152	     12.62734688	     43.45171988	      0.75837558	     17.18895437	    -22.46602736	     -7.49999987	    -19.84367953	      4.57935363	     -3.86331586	      1.20034305	    -18.86483977	     22.22468846	     17.72333767	     52.48518723	     -1.51429912	    -15.42997924	      7.31696937	     24.14422812	     59.67931553
      1.18333330	    -23.82738195	      0.44854148	      2.09331758	     -0.92806169	      1.16083844	     -0.08039577	     44.92374721	     -0.71794471	      0.30582396	     44.24326615	      0.77219067	     18.34430243	    -31.69064885	     -7.49999987	     44.81334387	      4.13318285	     11.73590355	     44.79697135	      0.78185464	     17.99732333	    -21.41241232	     -7.49999987	    -19.20787385	      4.40668798	     -3.92292496	      1.51046754	    -18.79822701	     21.98611418	     17.62045520	     52.75880425	     -0.94104485	    -15.48522276	      8.06429839	     24.13269650	     59.91497253
      1.18750000	    -23.85775777	      0.54872767	      2.29350509	     -0.92042465	      1.16071272	     -0.08527706	     45.12283668	     -0.95571667	      0.45722161	     44.82604502	      0.78236208	     18.37003778	    -31.75085713	     -7.49999987	     45.12431412	      4.43286004	     11.55482824	     45.35433590	      0.79158249	     18.12111938	    -21.17416004	     -7.49999987	    -19.64634526	      4.60330852	     -4.06254302	      1.86405353	    -18.99186872	     21.88376528	     17.51574252	     52.80017960	     -0.47262197	    -14.82069886	      8.34088656	     24.29819259	     59.98205880
      1.19166670	    -24.03472209	      0.42462317	      2.41574293	     -0.92137529	      1.15981938	     -0.07636389	     45.41498957	     -0.68681673	      0.51178571	     45.19940042	      0.78887836	     18.84498329	    -31.86465478	     -7.49999987	     45.84545111	      3.97344850	     10.78400218	     46.21237989	      0.80655818	     19.41054642	    -19.19039164	     -7.49999987	    -19.86312669	      4.68086192	     -3.91096910	      1.83681596	    -18.51316471	     20.10040590	     17.23566636	     53.90625461	      0.33162467	    -14.77902133	      9.95785396	     23.91676593	     60.48352853
      1.19583330	    -23.92832371	      0.38041221	      2.39500381	     -0.91999168	      1.15986354	     -0.07601028	     45.41086327	     -0.40522436	      0.58664395	     45.50569259	      0.79422416	     18.97033609	    -32.01721906	     -7.49999987	     46.15624262	      3.66389055	     10.43666596	     46.86049102	      0.81786986	     19.63295943	    -18.51142218	     -7.49999987	    -20.54196273	      4.80403492	     -3.81651149	      2.34779780	    -18.29137658	     18.63367646	     17.17281354	     54.36413233	      0.90014314	    -14.59181606	     10.66653917	     24.03100510	     60.65219837
      1.20000000	    -23.91179477	      0.37013310	      2.23792541	     -0.91482896	      1.15189475	     -0.08112321	     45.58728145	     -0.40583439	      0.30741111	     46.09232910	      0.80446290	     19.27211537	    -32.13006470	     -7.49999987	     46.45378567	      3.57458574	     10.17561113	     47.80416076	      0.83434000	     20.39894904	    -18.08685281	     -7.49999987	    -20.98003622	      5.10056304	     -3.85515823	      2.61142687	    -18.45001408	     17.84507076	     17.34494849	     54.79976117	      0.79073185	    -14.26133274	     10.92547908	     24.66339248	     60.63508894
      1.20416670	    -23.84275321	      0.46320795	      2.09996303	     -0.91943891	      1.15552783	     -0.07547503	     46.16993219	     -0.28627959	      0.46949985	     47.17928655	      0.82343389	     19.93831881	    -32.02951297	     -7.49999987	     46.71388262	      3.26612004	      9.42191804	     48.67881458	      0.84960559	     21.26091544	    -16.90087058	     -7.49999987	    -21.61830411	      4.98137870	     -3.93450026	      3.34661935	    -18.08651986	     17.60409512	     17.21084021	     55.14557929	      1.16002554	    -14.36404512	     11.71862458	     25.07555978	     60.85455887
      1.20833330	    -23.44266615	      0.59920348	      1.96749452	     -0.91369667	      1.15810919	     -0.08106954	     45.94824220	     -0.57769750	      0.36640906	     47.73428109	      0.83312037	     19.98518226	    -31.68193972	     -7.49999987	     46.29685883	      3.31293847	      9.03976647	     49.19159375	      0.85855528	     21.54134220	    -16.18423467	     -7.49999987	    -22.46413281	      5.09391508	     -4.19061052	      3.94872047	    -18.04556079	     17.29977272	     17.25340893	     55.39077907	      1.28415338	    -14.15990052	     12.23753213	     25.42083988	     60.95814397
      1.21250000	    -23.20302417	      0.86231770	      1.88393832	     -0.90604214	      1.15049948	     -0.07587243	     46.17759778	     -0.75035393	      0.47787714	     49.18297764	      0.85840490	     20.70145332	    -31.35543494	     -7.49999987	     45.96036991	      3.33076359	      8.66810197	     49.85633472	      0.87015719	     22.30382531	    -15.52220033	     -7.49999987	    -23.04988232	      4.83607148	     -4.28552662	      3.86236168	    -17.79695511	     17.04364866	     17.36669095	     55.64802966	      1.01656009	    -14.23493635	     12.53921981	     25.76592165	     60.97634263
      1.21666670	    -22.94265973	      1.10256149	      1.92627438	     -0.90068665	      1.14992639	     -0.07192507	     45.84010833	     -0.83874734	      0.57456452	     49.94800145	      0.87175708	     21.70436722	    -30.82277225	     -7.49999987	     45.38479480	      3.33383157	      8.50559540	     50.03997077	      0.87336225	     22.90014315	    -14.75663077	     -7.49999987	    -23.63313887	      4.66213060	     -4.32028193	      3.71058218	    -17.35850876	     16.71780573	     17.21018135	     55.83861518	      0.95339546	    -14.51293089	     12.61748710	     25.85230446	     60.94117328
      1.22083330	    -22.39812079	      1.06524836	      1.91787422	     -0.89892123	      1.14973749	     -0.07139615	     45.12464708	     -0.61056923	      0.42938881	     50.33871558	      0.87857633	     22.76580450	    -30.14597657	     -7.49999987	     45.08147461	      3.23197439	      8.36798098	     50.99403235	      0.89001376	     23.11402601	    -14.83412096	     -7.49999987	    -24.70363029	      4.72956497	     -4.04669259	      3.49037549	    -17.09759891	     15.51886012	     17.81825382	     56.45622128	      0.94371697	    -14.78551820	     12.47979529	     26.36957992	     60.71178430
      1.22500000	    -22.05665322	      1.18061915	      1.80353437	     -0.89410026	      1.14194393	     -0.06727279	     45.04950911	     -0.25378264	      0.55297303	     51.59980105	      0.90058642	     23.65269985	    -30.44303006	     -7.49999987	     44.89418432	      3.04127146	      8.31194640	     52.05548051	      0.90853953	     23.98072427	    -14.39549508	     -7.49999987	    -25.30285488	      4.48539241	     -3.83459015	      3.22896754	    -16.76085219	     14.54469170	     18.45636279	     56.84418805	      0.72380891	    -15.24007944	     12.29792964	     27.01680359	     60.62084384
      1.22916670	    -21.88687147	      1.34075499	      1.42300411	     -0.89299258	      1.14187042	     -0.07566252	     45.17086744	     -0.24482314	      0.85190598	     52.49840877	      0.91627009	     23.87944176	    -30.60493946	     -7.49999987	     45.04820358	      3.27585437	      8.07718081	     53.03685419	      0.92566773	     24.15490247	    -14.86150248	     -7.49999987	    -25.82723114	      4.38195148	     -3.57644500	      3.31112143	    -17.07602974	     14.07574536	     19.41328615	     57.25807309	      0.55973041	    -15.09298327	     12.30767397	     27.51643533	     60.56949934
      1.23333330	    -21.41769536	      1.48832677	      1.42757155	     -0.88784702	      1.13805282	     -0.07130718	     45.01202961	     -0.24823517	      1.11300209	     53.72444703	      0.93766849	     24.40881142	    -31.00859077	     -7.49999987	     44.73547314	      3.63383339	      8.49167270	     54.08633165	      0.94398457	     25.00005718	    -15.37166161	     -7.49999987	    -26.26675038	      4.30310303	     -3.49783499	      3.24725576	    -17.02280376	     14.20632707	     19.58091436	     57.40231802	      0.47048271	    -15.02518547	     12.35824245	     27.41376221	     60.56165327
      1.23750000	    -20.78283252	      1.57039974	      1.46397846	     -0.88681209	      1.13866151	     -0.07062387	     44.38266667	     -0.24366579	      1.41015192	     54.55467366	      0.95215868	     25.21514323	    -30.97668577	     -7.49999987	     44.09237360	      3.84003164	      8.61485323	     54.74245859	      0.95543614	     25.55312934	    -15.73777817	     -7.49999987	    -27.16070672	      4.25108180	     -3.38095631	      3.16932926	    -17.04225437	     13.74862452	     21.00188028	     57.73185915	      0.86350716	    -14.87218002	     11.67575709	     27.78944551	     60.37503661
      1.24166670	    -20.18013127	      1.53737852	      1.32519023	     -0.88814857	      1.13831358	     -0.07104045	     43.97780177	     -0.04663789	      1.53110180	     55.08605153	      0.96143297	     25.24699051	    -31.34425675	     -7.49999987	     43.74499201	      4.06045853	      8.86978374	     55.43712878	      0.96756042	     25.66491349	    -16.78921787	     -7.49999987	    -28.05253237	      4.22439748	     -2.98818029	      3.44851029	    -17.04918073	     13.63882767	     22.03598116	     58.03620787	      1.34231108	    -14.70243022	     11.02612291	     28.31904057	     60.22822820
